<svg width="411" height="411" viewBox="0 0 411 411" fill="none" xmlns="http://www.w3.org/2000/svg">
<circle cx="205.5" cy="205.5" r="205.5" fill="white"/>
<mask id="mask0_18_54" style="mask-type:luminance" maskUnits="userSpaceOnUse" x="16" y="105" width="378" height="78">
<path d="M16.4122 105H393.412V182.833H16.4122V105Z" fill="white"/>
</mask>
<g mask="url(#mask0_18_54)">
<path d="M391.506 178.583C358.558 178.583 332.912 164.464 314.193 154.161C302.334 147.63 292.964 142.469 284.949 142.156C266.376 141.406 247.449 147.583 230.615 154.974C224.36 150.688 217.99 146.167 211.657 141.661C190.282 126.474 168.178 110.75 152.131 105.813C152.084 105.792 152.022 105.792 151.964 105.786C151.933 105.776 151.907 105.776 151.876 105.766C144.746 103.885 132.209 113.766 113.334 128.672C86.6674 149.734 50.1414 178.583 18.2924 178.583C17.2508 178.583 16.4122 179.422 16.4122 180.453C16.4122 181.495 17.2508 182.328 18.2924 182.328C51.4383 182.328 88.5529 153.021 115.662 131.625C131.001 119.5 145.485 108.068 150.845 109.375C162.365 117.042 164.923 122.323 165.022 125.401C165.1 127.797 163.782 129.99 161.001 132.089C152.428 138.557 147.725 146.818 147.766 155.349C147.808 163.214 152.032 170.661 159.662 176.302C165.329 180.479 170.511 182.417 176.193 182.417C176.917 182.417 177.647 182.391 178.397 182.323C185.298 181.74 195.266 176.635 207.891 170.177C214.626 166.724 222.178 162.87 230.22 159.271C249.818 172.625 267.558 182.938 280.209 182.938C282.048 182.938 283.777 182.724 285.381 182.26C292.579 180.224 300.751 175.125 302.1 166.901C302.834 162.37 301.527 155.635 292.589 147.661C298.225 149.688 304.761 153.255 312.381 157.443C331.459 167.943 357.595 182.328 391.506 182.328C392.537 182.328 393.381 181.495 393.381 180.453C393.381 179.422 392.548 178.583 391.506 178.583ZM206.183 166.833C194.412 172.859 184.246 178.063 178.079 178.583C172.428 179.057 167.568 177.484 161.897 173.286C155.141 168.297 151.553 162.083 151.522 155.328C151.485 148.016 155.652 140.818 163.261 135.073C167.037 132.234 168.886 128.932 168.766 125.281C168.662 121.859 166.782 118.302 163.173 114.536C176.949 121.583 193.417 133.297 209.485 144.719C215.277 148.839 221.011 152.911 226.605 156.776C219.277 160.146 212.386 163.667 206.183 166.833ZM298.391 166.292C297.329 172.781 290.173 177 284.36 178.651C273.485 181.719 254.735 171.26 234.282 157.484C249.985 150.776 267.339 145.401 284.251 145.901C294.506 153.01 299.412 160.057 298.391 166.292Z" fill="#3D3131"/>
</g>
<path d="M28 230.581C28.2083 230.43 28.4167 230.363 28.625 230.373C28.8438 230.389 29.0104 230.472 29.125 230.623L31 233.477C31.0833 233.602 31.0885 233.758 31.0208 233.936C30.9479 234.118 30.8229 234.279 30.6458 234.415C29.9896 234.93 29.2344 235.383 28.375 235.769C27.526 236.144 26.6458 236.436 25.7292 236.644C24.8229 236.863 23.9427 236.977 23.0833 236.977C21.625 236.977 20.2344 236.769 18.9167 236.352C17.6094 235.925 16.4167 235.321 15.3333 234.54C14.25 233.764 13.3021 232.842 12.5 231.769C11.7083 230.701 11.0885 229.519 10.6458 228.227C10.2135 226.936 10 225.571 10 224.123C10 222.68 10.2135 221.311 10.6458 220.019C11.0885 218.727 11.7083 217.55 12.5 216.477C13.3021 215.394 14.25 214.467 15.3333 213.686C16.4167 212.909 17.6094 212.305 18.9167 211.873C20.2344 211.446 21.625 211.227 23.0833 211.227C23.9167 211.227 24.7917 211.331 25.7083 211.54C26.6354 211.748 27.5417 212.05 28.4167 212.436C29.2917 212.826 30.0677 213.3 30.75 213.852C30.9583 214.008 31.0677 214.175 31.0833 214.352C31.1094 214.519 31.0833 214.665 31 214.79L29.125 217.623C29.026 217.764 28.875 217.847 28.6667 217.873C28.4688 217.904 28.2604 217.831 28.0417 217.665C27.3594 217.071 26.5729 216.618 25.6875 216.311C24.7969 216.008 23.9271 215.852 23.0833 215.852C21.9167 215.852 20.8177 216.071 19.7917 216.498C18.7604 216.915 17.8594 217.508 17.0833 218.269C16.3177 219.019 15.7188 219.894 15.2917 220.894C14.8594 221.894 14.6458 222.972 14.6458 224.123C14.6458 225.279 14.8594 226.352 15.2917 227.352C15.7344 228.342 16.3385 229.206 17.1042 229.956C17.8802 230.706 18.776 231.29 19.7917 231.706C20.8177 232.123 21.9167 232.331 23.0833 232.331C23.901 232.331 24.75 232.18 25.625 231.873C26.5104 231.571 27.3021 231.139 28 230.581Z" fill="#201818"/>
<path d="M66.1758 235.769C66.2852 236.019 66.2852 236.227 66.1758 236.394C66.0769 236.55 65.8946 236.623 65.6342 236.623H62.0925C61.9102 236.623 61.7435 236.561 61.5925 236.436C61.4363 236.3 61.3269 236.144 61.2592 235.977L60.2592 233.54H48.78L47.78 235.956C47.6967 236.139 47.5821 236.29 47.4467 236.415C47.306 236.54 47.1342 236.602 46.9258 236.602H43.405C43.1238 236.602 42.931 236.529 42.8217 236.373C42.7227 236.222 42.7279 236.019 42.8425 235.769L53.4883 211.915C53.5717 211.722 53.6967 211.571 53.8633 211.456C54.03 211.347 54.2019 211.29 54.3842 211.29H54.5925C54.7852 211.29 54.9571 211.352 55.1133 211.477C55.28 211.592 55.4102 211.743 55.5092 211.936L66.1758 235.769ZM50.405 229.561H58.6133L54.5092 219.623L50.405 229.561Z" fill="#201818"/>
<path d="M87.5483 236.977C86.6004 236.977 85.6629 236.873 84.7358 236.665C83.8035 236.472 82.9233 236.186 82.09 235.811C81.2567 235.436 80.491 234.998 79.7983 234.498C79.116 233.988 78.5535 233.425 78.1108 232.811C77.9858 232.644 77.9285 232.472 77.9442 232.29C77.9702 232.097 78.0744 231.909 78.2567 231.727L80.3817 229.602C80.5327 229.451 80.7046 229.389 80.9025 229.415C81.0952 229.446 81.2879 229.555 81.4858 229.748C81.9858 230.279 82.5535 230.748 83.1942 231.165C83.8452 231.581 84.5327 231.915 85.2567 232.165C85.9754 232.415 86.6838 232.54 87.3817 232.54C88.7827 232.54 89.8504 232.269 90.59 231.727C91.34 231.175 91.715 230.415 91.715 229.456C91.715 228.863 91.5067 228.352 91.09 227.936C90.6838 227.508 90.0952 227.118 89.3192 226.769C88.5379 226.425 87.5796 226.055 86.4442 225.665C85.2619 225.279 84.215 224.868 83.2983 224.436C82.3817 223.993 81.5952 223.488 80.9442 222.915C80.3035 222.331 79.8088 221.665 79.465 220.915C79.1317 220.165 78.965 219.284 78.965 218.269C78.965 216.852 79.3088 215.623 80.0067 214.581C80.715 213.529 81.6994 212.706 82.965 212.123C84.241 211.529 85.7567 211.227 87.5067 211.227C88.4494 211.227 89.3713 211.347 90.2775 211.581C91.1785 211.821 92.0067 212.154 92.7567 212.581C93.5067 212.998 94.1213 213.493 94.6108 214.061C94.7775 214.243 94.8608 214.446 94.8608 214.665C94.8713 214.889 94.8035 215.092 94.6525 215.269L92.9233 217.248C92.6994 217.529 92.4702 217.654 92.2358 217.623C92.0119 217.597 91.7671 217.493 91.5067 217.311C90.9338 216.784 90.2671 216.383 89.5067 216.102C88.7567 215.811 88.0171 215.665 87.2983 215.665C86.1004 215.665 85.1733 215.915 84.5067 216.415C83.8504 216.904 83.5275 217.534 83.5275 218.311C83.5275 218.936 83.7619 219.472 84.2358 219.915C84.7046 220.363 85.34 220.764 86.1317 221.123C86.9338 221.472 87.8244 221.805 88.7983 222.123C89.8088 222.456 90.7775 222.821 91.6942 223.206C92.6108 223.581 93.4285 224.04 94.1525 224.581C94.8869 225.123 95.465 225.784 95.8817 226.561C96.2983 227.342 96.5067 228.279 96.5067 229.373C96.5067 230.54 96.2827 231.597 95.84 232.54C95.4077 233.472 94.7983 234.269 94.0067 234.936C93.215 235.592 92.2671 236.097 91.1733 236.456C90.0744 236.8 88.866 236.977 87.5483 236.977Z" fill="#201818"/>
<path d="M131.533 235.769C131.643 236.019 131.643 236.227 131.533 236.394C131.434 236.55 131.252 236.623 130.992 236.623H127.45C127.268 236.623 127.101 236.561 126.95 236.436C126.794 236.3 126.684 236.144 126.617 235.977L125.617 233.54H114.137L113.137 235.956C113.054 236.139 112.94 236.29 112.804 236.415C112.663 236.54 112.492 236.602 112.283 236.602H108.762C108.481 236.602 108.288 236.529 108.179 236.373C108.08 236.222 108.085 236.019 108.2 235.769L118.846 211.915C118.929 211.722 119.054 211.571 119.221 211.456C119.387 211.347 119.559 211.29 119.742 211.29H119.95C120.143 211.29 120.315 211.352 120.471 211.477C120.637 211.592 120.768 211.743 120.867 211.936L131.533 235.769ZM115.762 229.561H123.971L119.867 219.623L115.762 229.561Z" fill="#201818"/>
<path d="M186.146 211.581C186.505 211.581 186.687 211.764 186.687 212.123V236.144C186.687 236.383 186.625 236.571 186.5 236.706C186.375 236.842 186.229 236.915 186.062 236.915H186.021C185.812 236.915 185.635 236.852 185.5 236.727C185.359 236.602 185.192 236.467 185 236.311L169.104 221.227V236.061C169.104 236.425 168.922 236.602 168.562 236.602H165.021C164.646 236.602 164.458 236.425 164.458 236.061V211.998C164.458 211.79 164.51 211.623 164.625 211.498C164.734 211.363 164.88 211.29 165.062 211.29H165.125C165.302 211.29 165.458 211.352 165.583 211.477C165.718 211.592 165.875 211.722 166.041 211.873L182.062 227.04V212.123C182.062 211.764 182.239 211.581 182.604 211.581H186.146Z" fill="#201818"/>
<path d="M219.986 232.186C220.288 232.186 220.533 232.269 220.715 232.436C220.892 232.592 220.986 232.811 220.986 233.102V235.852C220.986 236.076 220.913 236.258 220.777 236.394C220.637 236.519 220.454 236.581 220.236 236.581H202.632C202.142 236.581 201.902 236.342 201.902 235.852V212.352C201.902 211.852 202.142 211.602 202.632 211.602H219.882C220.116 211.602 220.298 211.675 220.423 211.811C220.559 211.936 220.632 212.113 220.632 212.331V215.269C220.632 215.769 220.382 216.019 219.882 216.019H206.548V222.894H216.986C217.262 222.894 217.475 222.967 217.632 223.102C217.783 223.227 217.861 223.425 217.861 223.686V226.415C217.861 226.639 217.783 226.821 217.632 226.956C217.475 227.097 217.262 227.165 216.986 227.165H206.548V232.186H219.986Z" fill="#201818"/>
<path d="M254.497 223.873C254.857 223.873 255.039 224.061 255.039 224.436V233.811C255.039 233.967 255.003 234.118 254.935 234.269C254.862 234.425 254.768 234.54 254.643 234.623C254.169 234.956 253.607 235.269 252.956 235.561C252.315 235.842 251.628 236.092 250.893 236.311C250.169 236.519 249.425 236.675 248.664 236.79C247.914 236.915 247.185 236.977 246.477 236.977C245.018 236.977 243.628 236.769 242.31 236.352C241.003 235.925 239.8 235.321 238.706 234.54C237.622 233.764 236.675 232.842 235.872 231.769C235.081 230.701 234.466 229.519 234.039 228.227C233.607 226.936 233.393 225.561 233.393 224.102C233.393 222.659 233.607 221.29 234.039 219.998C234.466 218.696 235.081 217.514 235.872 216.456C236.675 215.389 237.622 214.467 238.706 213.686C239.789 212.894 240.982 212.29 242.289 211.873C243.607 211.446 244.997 211.227 246.456 211.227C247.3 211.227 248.185 211.326 249.102 211.519C250.029 211.701 250.935 211.988 251.81 212.373C252.685 212.748 253.461 213.222 254.143 213.79C254.294 213.915 254.383 214.076 254.414 214.269C254.456 214.467 254.419 214.639 254.31 214.79L252.497 217.519C252.372 217.701 252.211 217.8 252.018 217.811C251.836 217.826 251.664 217.764 251.497 217.623C250.997 217.196 250.456 216.852 249.872 216.602C249.3 216.342 248.716 216.144 248.122 216.019C247.539 215.894 246.987 215.831 246.477 215.831C245.294 215.831 244.19 216.05 243.164 216.477C242.149 216.894 241.258 217.477 240.497 218.227C239.732 218.977 239.128 219.852 238.685 220.852C238.253 221.852 238.039 222.936 238.039 224.102C238.039 225.284 238.247 226.383 238.664 227.394C239.081 228.409 239.664 229.305 240.414 230.081C241.164 230.863 242.05 231.472 243.081 231.915C244.122 232.347 245.253 232.561 246.477 232.561C246.904 232.561 247.378 232.508 247.893 232.394C248.404 232.284 248.904 232.133 249.393 231.936C249.878 231.743 250.289 231.534 250.622 231.311V227.748H246.372C246.008 227.748 245.831 227.571 245.831 227.206V224.436C245.831 224.061 246.008 223.873 246.372 223.873H254.497Z" fill="#201818"/>
<path d="M285.133 229.206L288.487 235.748C288.596 235.988 288.612 236.186 288.529 236.352C288.445 236.519 288.268 236.602 288.008 236.602H284.383C284.227 236.602 284.07 236.55 283.904 236.436C283.748 236.311 283.633 236.165 283.55 235.998L280.966 230.706C280.685 230.748 280.404 230.779 280.112 230.79C279.831 230.805 279.55 230.811 279.258 230.811H274.091V235.873C274.091 236.097 274.018 236.279 273.883 236.415C273.742 236.54 273.56 236.602 273.341 236.602H270.175C269.966 236.602 269.789 236.54 269.654 236.415C269.513 236.279 269.445 236.097 269.445 235.873V212.311C269.445 212.102 269.513 211.936 269.654 211.811C269.789 211.675 269.966 211.602 270.175 211.602H271.008C271.492 211.602 271.966 211.602 272.425 211.602C272.893 211.602 273.227 211.602 273.425 211.602H279.258C280.727 211.602 282.076 211.847 283.3 212.331C284.518 212.805 285.581 213.477 286.487 214.352C287.404 215.217 288.102 216.238 288.591 217.415C289.091 218.597 289.341 219.889 289.341 221.29C289.341 222.988 288.956 224.519 288.195 225.894C287.445 227.258 286.425 228.363 285.133 229.206ZM278.966 226.936C280.076 226.936 281.06 226.696 281.925 226.206C282.8 225.722 283.477 225.055 283.966 224.206C284.466 223.347 284.716 222.368 284.716 221.269C284.716 220.451 284.57 219.701 284.279 219.019C283.987 218.342 283.581 217.748 283.07 217.248C282.555 216.748 281.945 216.363 281.237 216.081C280.539 215.805 279.784 215.665 278.966 215.665H274.091V226.936H278.966Z" fill="#201818"/>
<path d="M324.844 235.769C324.954 236.019 324.954 236.227 324.844 236.394C324.745 236.55 324.563 236.623 324.303 236.623H320.761C320.579 236.623 320.412 236.561 320.261 236.436C320.105 236.3 319.995 236.144 319.928 235.977L318.928 233.54H307.448L306.448 235.956C306.365 236.139 306.251 236.29 306.115 236.415C305.975 236.54 305.803 236.602 305.594 236.602H302.073C301.792 236.602 301.599 236.529 301.49 236.373C301.391 236.222 301.396 236.019 301.511 235.769L312.157 211.915C312.24 211.722 312.365 211.571 312.532 211.456C312.698 211.347 312.87 211.29 313.053 211.29H313.261C313.454 211.29 313.626 211.352 313.782 211.477C313.948 211.592 314.079 211.743 314.178 211.936L324.844 235.769ZM309.073 229.561H317.282L313.178 219.623L309.073 229.561Z" fill="#201818"/>
<path d="M359.613 211.581C359.972 211.581 360.154 211.764 360.154 212.123V236.144C360.154 236.383 360.092 236.571 359.967 236.706C359.842 236.842 359.696 236.915 359.529 236.915H359.488C359.279 236.915 359.102 236.852 358.967 236.727C358.826 236.602 358.66 236.467 358.467 236.311L342.571 221.227V236.061C342.571 236.425 342.389 236.602 342.029 236.602H338.488C338.113 236.602 337.925 236.425 337.925 236.061V211.998C337.925 211.79 337.977 211.623 338.092 211.498C338.201 211.363 338.347 211.29 338.529 211.29H338.592C338.769 211.29 338.925 211.352 339.05 211.477C339.186 211.592 339.342 211.722 339.509 211.873L355.529 227.04V212.123C355.529 211.764 355.706 211.581 356.071 211.581H359.613Z" fill="#201818"/>
<path d="M373.87 224.144C373.87 222.701 374.083 221.331 374.515 220.04C374.943 218.738 375.547 217.55 376.328 216.477C377.12 215.409 378.047 214.488 379.12 213.706C380.203 212.915 381.396 212.305 382.703 211.873C384.005 211.446 385.38 211.227 386.828 211.227C388.271 211.227 389.646 211.446 390.953 211.873C392.255 212.305 393.443 212.915 394.515 213.706C395.583 214.488 396.515 215.409 397.307 216.477C398.099 217.55 398.708 218.738 399.14 220.04C399.568 221.331 399.786 222.701 399.786 224.144C399.786 225.592 399.568 226.956 399.14 228.248C398.708 229.54 398.099 230.722 397.307 231.79C396.515 232.847 395.583 233.764 394.515 234.54C393.443 235.321 392.255 235.925 390.953 236.352C389.646 236.769 388.271 236.977 386.828 236.977C385.38 236.977 384.005 236.769 382.703 236.352C381.396 235.925 380.203 235.321 379.12 234.54C378.047 233.764 377.12 232.847 376.328 231.79C375.547 230.722 374.943 229.54 374.515 228.248C374.083 226.956 373.87 225.592 373.87 224.144ZM378.515 224.144C378.515 225.3 378.724 226.373 379.14 227.373C379.557 228.363 380.146 229.227 380.911 229.977C381.672 230.717 382.557 231.29 383.557 231.706C384.568 232.123 385.661 232.331 386.828 232.331C387.995 232.331 389.078 232.123 390.078 231.706C391.088 231.29 391.974 230.717 392.724 229.977C393.484 229.227 394.078 228.363 394.495 227.373C394.922 226.373 395.14 225.3 395.14 224.144C395.14 222.967 394.922 221.873 394.495 220.873C394.078 219.873 393.484 218.998 392.724 218.248C391.974 217.498 391.088 216.915 390.078 216.498C389.062 216.071 387.979 215.852 386.828 215.852C385.661 215.852 384.568 216.071 383.557 216.498C382.557 216.915 381.672 217.498 380.911 218.248C380.161 218.998 379.568 219.873 379.14 220.873C378.724 221.873 378.515 222.967 378.515 224.144Z" fill="#201818"/>
</svg>
