<svg width="22" height="26" viewBox="0 0 22 26" fill="none" xmlns="http://www.w3.org/2000/svg">
<path d="M18 19.3542C18.2083 19.2031 18.4167 19.1354 18.625 19.1458C18.8438 19.1615 19.0104 19.2448 19.125 19.3958L21 22.25C21.0833 22.375 21.0885 22.5312 21.0208 22.7083C20.9479 22.8906 20.8229 23.0521 20.6458 23.1875C19.9896 23.7031 19.2344 24.1562 18.375 24.5417C17.526 24.9167 16.6458 25.2083 15.7292 25.4167C14.8229 25.6354 13.9427 25.75 13.0833 25.75C11.625 25.75 10.2344 25.5417 8.91667 25.125C7.60938 24.6979 6.41667 24.0938 5.33333 23.3125C4.25 22.5365 3.30208 21.6146 2.5 20.5417C1.70833 19.474 1.08854 18.2917 0.645833 17C0.213541 15.7083 0 14.3438 0 12.8958C0 11.4531 0.213541 10.0833 0.645833 8.79167C1.08854 7.5 1.70833 6.32292 2.5 5.25C3.30208 4.16667 4.25 3.23958 5.33333 2.45833C6.41667 1.68229 7.60938 1.07813 8.91667 0.645833C10.2344 0.218751 11.625 0 13.0833 0C13.9167 0 14.7917 0.104167 15.7083 0.3125C16.6354 0.520833 17.5417 0.822916 18.4167 1.20833C19.2917 1.59896 20.0677 2.07292 20.75 2.625C20.9583 2.78125 21.0677 2.94792 21.0833 3.125C21.1094 3.29167 21.0833 3.4375 21 3.5625L19.125 6.39583C19.026 6.53646 18.875 6.61979 18.6667 6.64583C18.4688 6.67708 18.2604 6.60417 18.0417 6.4375C17.3594 5.84375 16.5729 5.39063 15.6875 5.08333C14.7969 4.78125 13.9271 4.625 13.0833 4.625C11.9167 4.625 10.8177 4.84375 9.79167 5.27083C8.76042 5.6875 7.85938 6.28125 7.08333 7.04167C6.31771 7.79167 5.71875 8.66667 5.29167 9.66667C4.85938 10.6667 4.64583 11.7448 4.64583 12.8958C4.64583 14.0521 4.85938 15.125 5.29167 16.125C5.73438 17.1146 6.33854 17.9792 7.10417 18.7292C7.88021 19.4792 8.77604 20.0625 9.79167 20.4792C10.8177 20.8958 11.9167 21.1042 13.0833 21.1042C13.901 21.1042 14.75 20.9531 15.625 20.6458C16.5104 20.3438 17.3021 19.9115 18 19.3542Z" fill="#201818"/>
</svg>
